# xmcd
#
# Track frame offsets: 
#        150
#        8094
#        19236
#        28277
#        38803
#        49358
#        59698
#        72100
#        84562
#        97031
#        108221
#        119244
#        128121
#        138273
#        148871
#        161312
#        169758
#        181297
#        194562
#        205071
#        218920
#        232243
#        245715
#        254755
#        262366
#        274836
#        284877
#        295222
#        304717
#        316188
#        324277
#        331623
#        344253
#
# Disc length: 4755 seconds
#
# Revision: 0
# Processed by: cddbd v1.5.2PL0 Copyright (c) Steve Scherf et al.
# Submitted via: ExactAudioCopyFreeDBPlugin 1.0
#
DISCID=11129121
DTITLE=Chet Atkins - The Early Years - 1946-1949 E
DYEAR=1900
DGENRE=Country
TTITLE0=Minute Waltz
TTITLE1=Minuet
TTITLE2=Schon Rosemarien
TTITLE3=Tip Toe Through the Tulips
TTITLE4=Arkansas Traveler
TTITLE5=Little Rock Getaway
TTITLE6=Ochi Chornya
TTITLE7=Londonderry Air
TTITLE8=La Golondrina
TTITLE9=Black Mountain Rag
TTITLE10=Cecilia
TTITLE11=Poor People of Paris
TTITLE12=Honey
TTITLE13=The Lady Loves Me
TTITLE14=Memphis Blues
TTITLE15=Oh By Jingo
TTITLE16=Hello Ma Baby
TTITLE17=Indian Love Call
TTITLE18=Alice Blue Gown
TTITLE19=Third Man Theme
TTITLE20=Blue Gypsy
TTITLE21=St. Louis Blues
TTITLE22=Dance of the Goldenrod
TTITLE23=Gavotte in D
TTITLE24=Malaguena
TTITLE25=Glow Worm
TTITLE26=In the Mood
TTITLE27=Heartaches
TTITLE28=Swedish Rhapsody
TTITLE29=Waltz in A-Flat
TTITLE30=Adelita
TTITLE31=Petite Waltz
TTITLE32=Liza
EXTD=
EXTT0=
EXTT1=
EXTT2=
EXTT3=
EXTT4=
EXTT5=
EXTT6=
EXTT7=
EXTT8=
EXTT9=
EXTT10=
EXTT11=
EXTT12=
EXTT13=
EXTT14=
EXTT15=
EXTT16=
EXTT17=
EXTT18=
EXTT19=
EXTT20=
EXTT21=
EXTT22=
EXTT23=
EXTT24=
EXTT25=
EXTT26=
EXTT27=
EXTT28=
EXTT29=
EXTT30=
EXTT31=
EXTT32=
PLAYORDER=
